<?xml version="1.0" encoding="UTF-8"?>
<svg id="Layer_2" data-name="Layer 2" xmlns="http://www.w3.org/2000/svg" viewBox="0 0 1080 1080">
  <defs>
    <style>
      .cls-1 {
        fill: #007cc2;
      }

      .cls-1, .cls-2 {
        stroke-width: 0px;
      }

      .cls-2 {
        fill: #fff;
      }
    </style>
  </defs>
  <g id="Layer_1-2" data-name="Layer 1">
    <g>
      <circle class="cls-1" cx="540" cy="540" r="540"/>
      <circle class="cls-2" cx="540" cy="540" r="468"/>
      <path class="cls-1" d="M461.74,697.42l-1.23-32.04c-3.7-62.86,17.25-126.95,72.72-193.5,39.44-46.83,71.48-86.27,71.48-128.18s-28.35-71.48-89.97-73.95c-40.67,0-89.97,14.79-122.02,36.97l-41.9-134.34c44.37-25.88,118.32-50.53,205.83-50.53,162.69,0,236.64,89.97,236.64,192.27,0,93.67-57.93,155.29-104.76,207.06-45.6,50.53-64.09,98.6-62.86,154.06v22.18h-163.92ZM429.7,867.5c0-65.32,45.6-112.16,109.69-112.16s109.69,46.83,110.92,112.16c0,64.09-44.37,112.16-110.92,112.16s-109.69-48.07-109.69-112.16Z"/>
    </g>
  </g>
</svg>